<?xml version="1.0" encoding="UTF-8"?>
<svg width="192" height="192" viewBox="0 0 1024 1024" xmlns="http://www.w3.org/2000/svg">
  <defs>
    <linearGradient id="bgGradient" x1="0%" y1="0%" x2="100%" y2="100%">
      <stop offset="0%" stop-color="#1e3a5f"/>
      <stop offset="45%" stop-color="#0e7490"/>
      <stop offset="100%" stop-color="#047857"/>
    </linearGradient>
  </defs>

  <rect x="32" y="32" width="960" height="960" rx="220" fill="url(#bgGradient)"/>

  <g transform="translate(512, 512)">
    <path d="
      M -200 -265
      L 60 -265
      C 140 -265, 200 -225, 200 -140
      C 200 -65, 150 -15, 90 5
      L 280 265
      L 170 265
      L -10 18
      L -110 18
      L -110 265
      L -200 265
      Z
      M -110 -185
      L 50 -185
      C 105 -185, 130 -162, 130 -135
      C 130 -108, 105 -68, 50 -68
      L -110 -68
      Z
    " fill="#FFFFFF" fill-rule="evenodd"/>
  </g>

  <circle cx="785" cy="770" r="38" fill="#ef4444" stroke="#FFFFFF" stroke-width="5"/>
</svg>
