<?xml version="1.0" encoding="UTF-8"?>
<svg width="512" height="512" viewBox="0 0 1024 1024" xmlns="http://www.w3.org/2000/svg">
  <defs>
    <linearGradient id="bgGradient" x1="0%" y1="0%" x2="100%" y2="100%">
      <stop offset="0%" stop-color="#1e3a5f"/>
      <stop offset="45%" stop-color="#0e7490"/>
      <stop offset="100%" stop-color="#047857"/>
    </linearGradient>

    <radialGradient id="dotGradient" cx="35%" cy="30%" r="70%">
      <stop offset="0%" stop-color="#fb923c"/>
      <stop offset="100%" stop-color="#ef4444"/>
    </radialGradient>

    <filter id="rShadow" x="-20%" y="-20%" width="140%" height="140%">
      <feDropShadow dx="0" dy="4" stdDeviation="8" flood-color="#000000" flood-opacity="0.25"/>
    </filter>
  </defs>

  <rect x="32" y="32" width="960" height="960" rx="220" fill="url(#bgGradient)"/>

  <g filter="url(#rShadow)" transform="translate(512, 512)">
    <path d="
      M -200 -265
      L 60 -265
      C 140 -265, 200 -225, 200 -140
      C 200 -65, 150 -15, 90 5
      L 280 265
      L 170 265
      L -10 18
      L -110 18
      L -110 265
      L -200 265
      Z
      M -110 -185
      L 50 -185
      C 105 -185, 130 -162, 130 -135
      C 130 -108, 105 -68, 50 -68
      L -110 -68
      Z
    " fill="#FFFFFF" fill-rule="evenodd"/>
  </g>

  <circle cx="785" cy="770" r="38" fill="url(#dotGradient)" stroke="#FFFFFF" stroke-width="5"/>
</svg>
