<?xml version="1.0" encoding="UTF-8"?>
<svg width="192" height="192" viewBox="0 0 1024 1024" xmlns="http://www.w3.org/2000/svg">
  <defs>
    <linearGradient id="bgGradient" x1="0%" y1="0%" x2="100%" y2="100%">
      <stop offset="0%" stop-color="#4F46E5"/>
      <stop offset="100%" stop-color="#6366F1"/>
    </linearGradient>
    <linearGradient id="textGradient" x1="0%" y1="0%" x2="100%" y2="0%">
      <stop offset="0%" stop-color="#6366F1"/>
      <stop offset="100%" stop-color="#10B981"/>
    </linearGradient>
    <linearGradient id="accentGradient" x1="0%" y1="0%" x2="100%" y2="100%">
      <stop offset="0%" stop-color="#22D3EE"/>
      <stop offset="50%" stop-color="#6366F1"/>
      <stop offset="100%" stop-color="#10B981"/>
    </linearGradient>
  </defs>

  <rect x="32" y="32" width="960" height="960" rx="220" fill="url(#bgGradient)"/>

  <g transform="translate(160, 240)">
    <rect x="40" y="120" width="56" height="360" rx="28" fill="#22D3EE"/>
    <rect x="132" y="180" width="56" height="240" rx="28" fill="#30C4E6"/>
    <rect x="224" y="140" width="56" height="320" rx="28" fill="url(#accentGradient)"/>
    <rect x="316" y="220" width="56" height="160" rx="28" fill="url(#textGradient)"/>
    <rect x="408" y="260" width="56" height="80" rx="28" fill="#10B981"/>

    <rect x="500" y="120" width="200" height="56" rx="28" fill="url(#textGradient)"/>
    <rect x="540" y="220" width="160" height="56" rx="28" fill="#10B981"/>
    <rect x="500" y="320" width="120" height="56" rx="28" fill="#10B981" opacity="0.9"/>
    <rect x="540" y="420" width="80" height="56" rx="28" fill="#10B981" opacity="0.8"/>

    <circle cx="480" cy="280" r="24" fill="url(#accentGradient)" opacity="0.9"/>
    <circle cx="480" cy="148" r="20" fill="url(#accentGradient)" opacity="0.7"/>
    <circle cx="480" cy="408" r="16" fill="url(#accentGradient)" opacity="0.5"/>
  </g>
</svg>
